<svg xmlns="http://www.w3.org/2000/svg" width="900" height="1350" viewBox="0 0 900 1350">
  <defs>
    <linearGradient id="g" x1="0" x2="1" y1="0" y2="1">
      <stop offset="0" stop-color="#f8fafc"/>
      <stop offset="1" stop-color="#e2e8f0"/>
    </linearGradient>
    <pattern id="p" width="42" height="42" patternUnits="userSpaceOnUse" patternTransform="rotate(45)">
      <rect width="42" height="42" fill="transparent"/>
      <path d="M0 0h42" stroke="#cbd5e1" stroke-width="4" opacity="0.4"/>
    </pattern>
  </defs>
  <rect width="900" height="1350" fill="url(#g)"/>
  <rect x="40" y="40" width="820" height="1270" rx="28" fill="white" stroke="#0f172a" stroke-width="8"/>
  <rect x="80" y="90" width="740" height="330" rx="18" fill="url(#p)" stroke="#0f172a" stroke-width="5"/>
  <rect x="80" y="455" width="350" height="380" rx="18" fill="#f1f5f9" stroke="#0f172a" stroke-width="5"/>
  <rect x="470" y="455" width="350" height="380" rx="18" fill="#f8fafc" stroke="#0f172a" stroke-width="5"/>
  <rect x="80" y="870" width="740" height="270" rx="18" fill="#f1f5f9" stroke="#0f172a" stroke-width="5"/>
  <rect x="140" y="930" width="620" height="32" rx="16" fill="#0f172a" opacity="0.18"/>
  <rect x="140" y="990" width="520" height="32" rx="16" fill="#0f172a" opacity="0.18"/>
  <rect x="140" y="1050" width="580" height="32" rx="16" fill="#0f172a" opacity="0.18"/>
  <circle cx="240" cy="625" r="86" fill="#e11d48" opacity="0.9"/>
  <circle cx="650" cy="625" r="86" fill="#f97316" opacity="0.9"/>
  <text x="450" y="1240" text-anchor="middle" font-family="Arial, sans-serif" font-size="56" font-weight="900" fill="#0f172a">DEMO PAGE 2</text>
  <text x="450" y="1288" text-anchor="middle" font-family="Arial, sans-serif" font-size="24" fill="#475569">Sostituisci con pagine autorizzate</text>
</svg>
